<?xml version="1.0" encoding="UTF-8" standalone="no"?>
<svg
   xmlns:dc="http://purl.org/dc/elements/1.1/"
   xmlns:cc="http://creativecommons.org/ns#"
   xmlns:rdf="http://www.w3.org/1999/02/22-rdf-syntax-ns#"
   xmlns:svg="http://www.w3.org/2000/svg"
   xmlns="http://www.w3.org/2000/svg"
   viewBox="0 0 1052.3625 744.09497"
   height="744.09497"
   width="1052.3625"
   xml:space="preserve"
   version="1.1"
   id="svg2"><metadata
     id="metadata8"><rdf:RDF><cc:Work
         rdf:about=""><dc:format>image/svg+xml</dc:format><dc:type
           rdf:resource="http://purl.org/dc/dcmitype/StillImage" /></cc:Work></rdf:RDF></metadata><defs
     id="defs6"><clipPath
       id="clipPath16"
       clipPathUnits="userSpaceOnUse"><path
         id="path18"
         d="m 0,595.276 841.89,0 L 841.89,0 0,0 0,595.276 Z" /></clipPath></defs><g
     transform="matrix(1.25,0,0,-1.25,0,744.095)"
     id="g10"><g
       id="g12"><g
         clip-path="url(#clipPath16)"
         id="g14"><g
           transform="translate(200.1206,578.8721)"
           id="g20"><path
             id="path22"
             style="fill:#ff6eff;fill-opacity:1;fill-rule:nonzero;stroke:none"
             d="m 0,0 0,-350.005 0.128,-0.808 c 11.457,-76.264 65.881,-126.293 115.91,-156.981 50.217,-30.788 97.092,-43.005 97.721,-43.188 l 3.538,-0.938 3.404,1.329 c 196.178,75.985 211.884,197.376 211.774,200.218 l 0.077,0.644 L 432.552,0 0,0 Z" /></g><g
           transform="translate(617.3623,227.4023)"
           id="g24"><path
             id="path26"
             style="fill:#004cbc;fill-opacity:1;fill-rule:nonzero;stroke:none"
             d="m 0,0 c -1.996,-10.394 -21.236,-114.513 -201.23,-186.229 -1.122,0.325 -2.499,0.731 -4.133,1.244 -17.716,5.548 -63.114,21.758 -105.724,51.953 -42.558,30.14 -81.682,73.407 -90.913,133.496 l 0,246.056 402.054,0 0,-246.192 C 0.034,0.236 0.024,0.12 0,0 m 0.054,269.912 -402.053,0 0,68.559 402.053,0 0,-68.559 z m -425.451,91.961 0,-363.203 0.133,-0.836 c 11.89,-79.136 68.366,-131.055 120.28,-162.902 52.112,-31.946 100.754,-44.625 101.407,-44.814 l 3.671,-0.972 3.531,1.378 C 7.198,-130.625 23.499,-4.655 23.384,-1.707 l 0.077,0.667 0,362.913 -448.858,0 z" /></g><g
           transform="translate(262.1797,542.959)"
           id="g28"><path
             id="path30"
             style="fill:#ffffff;fill-opacity:1;fill-rule:nonzero;stroke:none"
             d="M 0,0 0,-0.459 C -0.945,-0.943 -1.595,-1.537 -1.979,-2.233 -2.364,-2.935 -2.55,-4.003 -2.55,-5.424 l 0,-15.711 2.016,-1.504 0.776,0.639 0.449,-0.639 -3.548,-2.687 c -1.068,0.928 -1.868,1.552 -2.407,1.856 -0.527,0.304 -1.226,0.585 -2.101,0.831 l 0,0.387 c 0.336,0.203 0.604,0.455 0.771,0.764 0.186,0.304 0.319,0.667 0.385,1.078 0.026,0.136 0.043,0.841 0.06,2.113 l 0,12.627 c 0,1.068 -0.051,1.812 -0.126,2.233 -0.089,0.416 -0.248,0.817 -0.507,1.204 -0.242,0.377 -0.665,0.812 -1.24,1.281 l 0.273,0.348 c 1.073,-0.305 2.045,-0.933 2.895,-1.876 0.88,0.938 1.678,1.571 2.391,1.915 C -1.748,-0.227 -0.945,-0.039 0,0" /></g><g
           transform="translate(276.9556,536.4766)"
           id="g32"><path
             id="path34"
             style="fill:#ffffff;fill-opacity:1;fill-rule:nonzero;stroke:none"
             d="m 0,0 3.159,-2.63 -1.436,-1.291 0,-9.286 c 0,-1.068 0.15,-1.837 0.452,-2.301 0.199,-0.31 0.402,-0.474 0.643,-0.474 0.165,0 0.484,0.189 0.967,0.565 l 0.44,-0.546 -3.764,-2.881 c -0.93,0.657 -1.544,1.252 -1.832,1.774 -0.295,0.527 -0.437,1.363 -0.471,2.5 -1.829,-1.17 -3.693,-2.597 -5.6,-4.274 -1.127,0.894 -1.878,1.687 -2.224,2.359 -0.37,0.682 -0.539,1.567 -0.539,2.673 l 0,8.736 c 0,0.609 -0.044,1.01 -0.155,1.199 -0.207,0.338 -0.461,0.498 -0.786,0.498 -0.258,0 -0.621,-0.204 -1.114,-0.6 l -0.44,0.546 4.182,3.433 3.21,-2.63 -1.332,-1.175 0,-9.398 c 0,-0.691 0.106,-1.208 0.271,-1.527 0.176,-0.324 0.609,-0.735 1.286,-1.228 l 3.241,2.378 0,9.659 L -3.089,-2.63 0,0 Z" /></g><g
           transform="translate(288.125,522.4956)"
           id="g36"><path
             id="path38"
             style="fill:#ffffff;fill-opacity:1;fill-rule:nonzero;stroke:none"
             d="m 0,0 4.604,-1.822 0,9.948 c 0,0.914 -0.082,1.547 -0.241,1.895 -0.176,0.349 -0.583,0.745 -1.221,1.18 L 0,8.779 0,0 Z M 2.101,20.463 2.226,20.004 C 1.32,19.458 0.725,18.926 0.435,18.409 0.143,17.882 0,17.026 0,15.837 L 0,9.625 5.605,13.981 C 6.649,13.255 7.362,12.555 7.725,11.868 8.087,11.177 8.264,10.234 8.264,9.03 l 0,-10.659 C 6.835,-2.199 5.639,-2.75 4.677,-3.306 3.952,-3.746 3.263,-4.259 2.605,-4.863 c -1,0.826 -2.001,1.46 -3.006,1.909 -0.989,0.45 -2.468,0.89 -4.429,1.325 l 0,0.324 c 0.511,0.348 0.83,0.764 0.955,1.233 0.194,0.696 0.298,2.305 0.298,4.824 l 0,10.248 c 0,1.33 -0.138,2.297 -0.402,2.892 -0.273,0.594 -0.773,1.15 -1.537,1.668 l 0.319,0.444 c 0.906,-0.391 1.511,-0.686 1.844,-0.894 0.332,-0.208 0.651,-0.469 0.957,-0.803 1.209,0.875 2.072,1.422 2.572,1.649 0.518,0.237 1.165,0.401 1.925,0.507" /></g><g
           transform="translate(344.8423,536.4766)"
           id="g40"><path
             id="path42"
             style="fill:#ffffff;fill-opacity:1;fill-rule:nonzero;stroke:none"
             d="M 0,0 2.68,-3.21 0,-5.588 l -2.231,2.832 -1.757,-1.6 0,-10.282 2.02,-1.45 1.813,1.435 0.413,-0.57 -4.539,-3.621 c -0.955,0.865 -1.774,1.479 -2.422,1.856 -0.65,0.383 -1.363,0.677 -2.131,0.885 l 0,0.387 c 0.509,0.362 0.85,0.735 1.005,1.107 0.152,0.372 0.234,1.083 0.234,2.127 l 0,7.212 c 0,0.909 -0.099,1.504 -0.307,1.813 -0.186,0.3 -0.418,0.44 -0.652,0.44 -0.276,0 -0.634,-0.222 -1.095,-0.696 L -10.082,-3.201 -6.396,0 c 1.006,-0.769 1.692,-1.436 2.055,-1.997 0.241,-0.357 0.353,-0.846 0.353,-1.474 L 0,0 Z" /></g><g
           transform="translate(359.1079,532.2319)"
           id="g44"><path
             id="path46"
             style="fill:#ffffff;fill-opacity:1;fill-rule:nonzero;stroke:none"
             d="m 0,0 -4.825,1.658 0,-11.573 2.616,-1.9 L 0,-9.175 0,0 Z m -5.303,-16.417 c 1.523,0.247 2.762,0.372 3.708,0.372 0.845,0 1.704,-0.116 2.572,-0.338 0.867,-0.222 1.742,-0.566 2.622,-1.03 l 0.725,0.464 c -1.588,1.48 -2.666,2.683 -3.237,3.602 -0.56,0.918 -0.927,1.919 -1.082,2.997 l -5.308,-6.067 z m 3.292,20.662 5.504,-2.587 3.297,1.663 0,-3.979 -3.186,0.619 0,-8.02 c 0,-1.3 0.087,-2.175 0.225,-2.634 0.203,-0.599 0.63,-1.296 1.259,-2.084 1.027,-1.315 1.537,-2.243 1.537,-2.808 0,-0.566 -0.273,-1.107 -0.802,-1.629 -0.544,-0.518 -1.968,-1.325 -4.291,-2.403 -0.797,0.28 -1.554,0.493 -2.257,0.623 -0.72,0.14 -1.402,0.208 -2.067,0.208 -1.557,0 -3.348,-0.28 -5.385,-0.831 l -0.247,0.604 4.182,4.878 -4.182,3.002 0,12.791 c 2.319,0.498 4.467,1.359 6.413,2.587" /></g><g
           transform="translate(372.7788,534.4458)"
           id="g48"><path
             id="path50"
             style="fill:#ffffff;fill-opacity:1;fill-rule:nonzero;stroke:none"
             d="m 0,0 -0.253,-0.135 0,-8.02 4.66,3.263 L 0,0 Z m 2.681,2.031 4.988,-5.816 -7.922,-5.549 0,-3.22 4.099,-1.625 2.779,1.89 0.397,-0.531 -5.738,-3.993 c -1.158,0.624 -2.125,1.073 -2.884,1.344 -0.752,0.27 -1.817,0.555 -3.215,0.85 l 0,0.44 c 0.397,0.237 0.66,0.527 0.808,0.87 0.137,0.353 0.203,1.103 0.203,2.253 l 0,10.109 c 1.112,0.401 2.023,0.768 2.76,1.102 0.527,0.246 1.769,0.865 3.725,1.876" /></g><g
           transform="translate(393.1694,536.4766)"
           id="g52"><path
             id="path54"
             style="fill:#ffffff;fill-opacity:1;fill-rule:nonzero;stroke:none"
             d="M 0,0 2.413,-2.654 4.138,-0.991 4.631,-1.47 C 3.812,-2.229 3.302,-2.794 3.133,-3.196 2.896,-3.713 2.775,-4.428 2.775,-5.342 l 0,-8.426 c 0,-0.778 0.126,-1.354 0.372,-1.735 0.155,-0.247 0.324,-0.378 0.518,-0.378 0.164,0 0.548,0.237 1.165,0.696 l 0.435,-0.55 -3.788,-3.109 c -0.984,0.74 -1.627,1.392 -1.89,1.953 -0.274,0.571 -0.416,1.489 -0.416,2.751 l 0,9.673 -1.573,1.649 -3.017,-2.423 0,-9.803 1.33,-1.262 -3.116,-2.538 -3.138,2.538 1.325,1.262 0,9.016 c 0,1.285 -0.143,2.146 -0.394,2.595 -0.171,0.31 -0.362,0.455 -0.595,0.455 -0.242,0 -0.604,-0.223 -1.066,-0.687 l -0.44,0.552 L -7.754,0 c 1.056,-0.778 1.687,-1.393 1.956,-1.842 0.258,-0.45 0.379,-1.069 0.379,-1.871 l 0,-0.643 L 0,0 Z" /></g><g
           transform="translate(400.0752,534.5474)"
           id="g56"><path
             id="path58"
             style="fill:#ffffff;fill-opacity:1;fill-rule:nonzero;stroke:none"
             d="m 0,0 4.929,6.077 0.512,0 -0.171,-4.873 3.55,0 0,-1.982 -3.55,0 0,-11.907 1.972,-1.474 1.133,0.885 0.445,-0.532 -3.906,-3.109 c -1.315,1.354 -2.813,2.277 -4.491,2.756 l 0,0.353 c 0.469,0.319 0.785,0.652 0.94,0.991 0.186,0.44 0.298,1.073 0.298,1.895 l 0,10.142 L 0,-0.778 0,0 Z" /></g><g
           transform="translate(415.4165,542.5142)"
           id="g60"><path
             id="path62"
             style="fill:#ffffff;fill-opacity:1;fill-rule:nonzero;stroke:none"
             d="m 0,0 2.253,0 -2.439,-3.814 -0.72,0 L 0,0 Z m -1.339,-6.038 3.147,-2.61 -1.412,-1.349 0,-9.62 c 0,-1.015 0.1,-1.668 0.269,-1.977 0.171,-0.31 0.348,-0.455 0.529,-0.455 0.121,0 0.235,0.025 0.35,0.088 0.143,0.082 0.453,0.314 0.919,0.7 l 0.44,-0.546 -3.793,-3.074 c -0.954,0.672 -1.549,1.305 -1.824,1.899 -0.273,0.595 -0.407,1.634 -0.407,3.118 l 0,9.867 -1.329,1.349 3.111,2.61 z" /></g><g
           transform="translate(431.9443,536.4766)"
           id="g64"><path
             id="path66"
             style="fill:#ffffff;fill-opacity:1;fill-rule:nonzero;stroke:none"
             d="M 0,0 2.413,-2.654 4.129,-0.991 4.634,-1.47 C 3.814,-2.229 3.305,-2.794 3.123,-3.196 2.887,-3.713 2.766,-4.428 2.766,-5.342 l 0,-8.426 c 0,-0.778 0.126,-1.354 0.372,-1.735 0.154,-0.247 0.326,-0.378 0.512,-0.378 0.176,0 0.554,0.237 1.182,0.696 l 0.423,-0.55 -3.787,-3.109 c -0.989,0.74 -1.615,1.392 -1.883,1.953 -0.288,0.571 -0.419,1.489 -0.419,2.751 l 0,9.673 -1.57,1.649 -3.012,-2.423 0,-9.803 1.319,-1.262 -3.11,-2.538 -3.133,2.538 1.319,1.262 0,9.016 c 0,1.285 -0.137,2.146 -0.391,2.595 -0.181,0.31 -0.372,0.455 -0.604,0.455 -0.23,0 -0.592,-0.223 -1.061,-0.687 L -11.522,-3.113 -7.756,0 c 1.042,-0.778 1.692,-1.393 1.955,-1.842 0.264,-0.45 0.385,-1.069 0.385,-1.871 l 0,-0.643 L 0,0 Z" /></g><g
           transform="translate(443.9404,522.3848)"
           id="g68"><path
             id="path70"
             style="fill:#ffffff;fill-opacity:1;fill-rule:nonzero;stroke:none"
             d="m 0,0 4.607,-1.89 0,11.22 C 3.157,10.016 2.137,10.456 1.542,10.674 1.107,10.829 0.6,10.959 0,11.065 L 0,0 Z m 8.209,11.505 0,-13.216 C 6.444,-2.432 5.168,-3.021 4.38,-3.481 3.775,-3.824 3.195,-4.25 2.635,-4.752 c -1.701,1.034 -3.118,1.759 -4.239,2.161 -0.851,0.299 -1.813,0.478 -2.891,0.527 l -0.17,0.353 c 0.45,0.372 0.726,0.72 0.852,1.024 0.166,0.397 0.241,1.074 0.241,2.031 l 0,9.707 c 2.161,0.715 4.008,1.73 5.545,3.041 1.668,-1.113 3.756,-1.973 6.236,-2.587" /></g><g
           transform="translate(473.9951,531.6904)"
           id="g72"><path
             id="path74"
             style="fill:#ffffff;fill-opacity:1;fill-rule:nonzero;stroke:none"
             d="M 0,0 -3.655,2.495 C -3.964,2.229 -4.303,2.001 -4.641,1.803 l 0,-10.93 L 0,-11.196 0,0 Z M -9.533,10.809 2.494,2.557 c 0.179,0.43 0.397,0.764 0.629,0.991 0.231,0.218 0.58,0.435 1.049,0.634 l 0,-0.725 C 3.935,3.137 3.79,2.852 3.722,2.591 3.645,2.335 3.611,1.803 3.611,1 l 0,-11.896 c -1.494,-0.566 -2.606,-1.059 -3.345,-1.47 -0.711,-0.425 -1.513,-0.986 -2.355,-1.692 -1.391,0.909 -2.63,1.566 -3.703,1.977 -1.072,0.416 -2.219,0.696 -3.466,0.856 l 0,0.329 c 0.421,0.367 0.701,0.739 0.818,1.107 0.125,0.367 0.188,1.141 0.188,2.306 l 0,9.253 c 1.619,0.454 2.76,0.961 3.427,1.522 l -4.708,3.205 0,4.312 z" /></g><g
           transform="translate(486.0225,534.4458)"
           id="g76"><path
             id="path78"
             style="fill:#ffffff;fill-opacity:1;fill-rule:nonzero;stroke:none"
             d="m 0,0 -0.261,-0.135 0,-8.02 4.66,3.263 L 0,0 Z m 2.688,2.031 4.974,-5.816 -7.923,-5.549 0,-3.22 4.104,-1.625 2.775,1.89 0.397,-0.531 -5.719,-3.993 c -1.17,0.624 -2.137,1.073 -2.892,1.344 -0.754,0.27 -1.827,0.555 -3.218,0.85 l 0,0.44 c 0.395,0.237 0.667,0.527 0.801,0.87 0.136,0.353 0.213,1.103 0.213,2.253 l 0,10.109 c 1.103,0.401 2.011,0.768 2.746,1.102 0.532,0.246 1.779,0.865 3.742,1.876" /></g><g
           transform="translate(547.417,536.4766)"
           id="g80"><path
             id="path82"
             style="fill:#ffffff;fill-opacity:1;fill-rule:nonzero;stroke:none"
             d="m 0,0 3.156,-2.63 -1.435,-1.291 0,-9.286 c 0,-1.068 0.149,-1.837 0.454,-2.301 0.193,-0.31 0.406,-0.474 0.634,-0.474 0.169,0 0.483,0.189 0.971,0.565 l 0.435,-0.546 -3.751,-2.881 c -0.938,0.657 -1.547,1.252 -1.847,1.774 -0.29,0.527 -0.435,1.363 -0.464,2.5 -1.832,-1.17 -3.693,-2.597 -5.598,-4.274 -1.121,0.894 -1.875,1.687 -2.234,2.359 -0.347,0.682 -0.531,1.567 -0.531,2.673 l 0,8.736 c 0,0.609 -0.049,1.01 -0.155,1.199 -0.189,0.338 -0.454,0.498 -0.787,0.498 -0.247,0 -0.624,-0.204 -1.108,-0.6 l -0.435,0.546 4.176,3.433 3.201,-2.63 -1.325,-1.175 0,-9.398 c 0,-0.691 0.107,-1.208 0.276,-1.527 0.169,-0.324 0.604,-0.735 1.281,-1.228 l 3.239,2.378 0,9.659 L -3.094,-2.63 0,0 Z" /></g><g
           transform="translate(563.3789,532.2319)"
           id="g84"><path
             id="path86"
             style="fill:#ffffff;fill-opacity:1;fill-rule:nonzero;stroke:none"
             d="m 0,0 -4.814,1.658 0,-11.573 2.62,-1.9 L 0,-9.175 0,0 Z m -5.298,-16.417 c 1.527,0.247 2.765,0.372 3.713,0.372 0.846,0 1.711,-0.116 2.571,-0.338 0.861,-0.222 1.741,-0.566 2.62,-1.03 l 0.731,0.464 c -1.591,1.48 -2.674,2.683 -3.23,3.602 -0.575,0.918 -0.933,1.919 -1.097,2.997 l -5.308,-6.067 z m 3.297,20.662 5.511,-2.587 3.282,1.663 0,-3.979 -3.181,0.619 0,-8.02 c 0,-1.3 0.077,-2.175 0.233,-2.634 0.198,-0.599 0.623,-1.296 1.252,-2.084 1.024,-1.315 1.547,-2.243 1.547,-2.808 0,-0.566 -0.271,-1.107 -0.813,-1.629 -0.541,-0.518 -1.963,-1.325 -4.293,-2.403 -0.792,0.28 -1.552,0.493 -2.266,0.623 -0.711,0.14 -1.398,0.208 -2.05,0.208 -1.552,0 -3.351,-0.28 -5.4,-0.831 l -0.237,0.604 4.177,4.878 -4.177,3.002 0,12.791 c 2.33,0.498 4.467,1.359 6.415,2.587" /></g><g
           transform="translate(577.0361,522.4956)"
           id="g88"><path
             id="path90"
             style="fill:#ffffff;fill-opacity:1;fill-rule:nonzero;stroke:none"
             d="m 0,0 4.606,-1.822 0,9.948 c 0,0.914 -0.091,1.547 -0.255,1.895 -0.169,0.349 -0.571,0.745 -1.219,1.18 L 0,8.779 0,0 Z M 2.093,20.463 2.224,20.004 C 1.31,19.458 0.72,18.926 0.43,18.409 0.14,17.882 0,17.026 0,15.837 L 0,9.625 5.603,13.981 C 6.646,13.255 7.357,12.555 7.725,11.868 8.082,11.177 8.262,10.234 8.262,9.03 l 0,-10.659 C 6.82,-2.199 5.632,-2.75 4.675,-3.306 3.949,-3.746 3.258,-4.259 2.605,-4.863 c -1.005,0.826 -2.006,1.46 -3.011,1.909 -0.982,0.45 -2.471,0.89 -4.433,1.325 l 0,0.324 c 0.512,0.348 0.841,0.764 0.957,1.233 0.203,0.696 0.305,2.305 0.305,4.824 l 0,10.248 c 0,1.33 -0.141,2.297 -0.406,2.892 -0.267,0.594 -0.779,1.15 -1.542,1.668 l 0.318,0.444 c 0.904,-0.391 1.514,-0.686 1.847,-0.894 0.329,-0.208 0.648,-0.469 0.966,-0.803 1.209,0.875 2.07,1.422 2.573,1.649 0.521,0.237 1.15,0.401 1.914,0.507" /></g><g
           transform="translate(594.1348,531.4004)"
           id="g92"><path
             id="path94"
             style="fill:#ffffff;fill-opacity:1;fill-rule:nonzero;stroke:none"
             d="m 0,0 0,-10.041 c 1.662,1.204 2.832,2.456 3.528,3.757 0.697,1.305 1.054,2.542 1.054,3.727 0,1.585 -0.652,3.142 -1.943,4.66 L 0,0 Z m -6.125,1.977 3.712,3.099 C -1.407,4.39 -0.745,3.795 -0.45,3.287 -0.155,2.785 0,2.088 0,1.199 L 0,0.812 5.337,5.076 c 1.822,-1.924 2.745,-3.979 2.745,-6.173 0,-1.18 -0.309,-2.355 -0.908,-3.52 -0.6,-1.179 -1.547,-2.291 -2.828,-3.35 -1.282,-1.054 -3.356,-2.431 -6.212,-4.133 -1.257,-0.759 -2.007,-1.237 -2.243,-1.441 -0.541,-0.411 -0.91,-0.807 -1.141,-1.193 -0.165,-0.29 -0.252,-0.605 -0.252,-0.958 0,-0.599 0.31,-1.165 0.904,-1.672 0.585,-0.513 1.373,-0.769 2.355,-0.769 0.71,0 1.285,0.126 1.75,0.372 0.222,0.121 0.444,0.367 0.657,0.754 0.203,0.382 0.392,0.633 0.546,0.75 0.15,0.115 0.344,0.178 0.547,0.178 0.226,0 0.42,-0.063 0.57,-0.203 0.135,-0.12 0.203,-0.299 0.203,-0.507 0,-0.372 -0.27,-0.75 -0.827,-1.117 -0.846,-0.59 -1.919,-0.88 -3.215,-0.88 -1.353,0 -2.397,0.319 -3.123,0.962 -0.734,0.643 -1.111,1.407 -1.111,2.292 0,0.87 0.426,1.716 1.227,2.543 0.407,0.401 0.649,0.681 0.736,0.85 0.27,0.445 0.444,0.856 0.531,1.243 0.106,0.377 0.146,0.918 0.146,1.619 l 0,8.445 c 0,1.18 -0.131,1.987 -0.407,2.403 C -4.216,1.9 -4.448,2.06 -4.689,2.06 -4.893,2.06 -5.153,1.915 -5.463,1.605 -5.512,1.557 -5.589,1.489 -5.695,1.397 l -0.43,0.58 z" /></g><g
           transform="translate(414.0991,212.3145)"
           id="g96"><path
             id="path98"
             style="fill:#ffffff;fill-opacity:1;fill-rule:nonzero;stroke:none"
             d="m 0,0 c 0,0 -11.841,14.783 -35.287,24.394 l 10.185,25.819 63.674,0 L 41.12,41.115 0,0 Z m -70.586,162.284 c 18.928,43.662 67.678,7.643 67.678,7.643 l -24.011,-52.765 c -17.468,-7.639 -62.581,1.46 -43.667,45.122 m 102.618,-91.333 -48.396,0 27.287,71.692 21.109,-71.692 z m 84.492,-42.516 c 0,0 -13.082,-20.55 -20.933,-2.988 C 87.75,43.01 47.395,134.197 41.787,229.852 l -1.498,0 -22.992,-22.982 c 0,0 -12.886,19.617 -53.991,19.617 -41.112,0 -63.535,-39.612 -63.535,-69.501 0,-29.895 19.812,-58.673 70.26,-52.316 L -60.981,28.435 c 0,0 -71.739,7.473 -71.739,-52.306 0,-59.804 47.452,-73.253 69.496,-73.253 22.046,0 63.519,11.96 89.311,49.715 l -11.768,11.762 c 0,0 -34.574,-38.674 -72.317,-38.674 -37.743,0 -36.237,29.508 -36.237,35.87 0,6.352 4.484,24.287 37.726,24.287 33.266,0 46.355,-23.91 46.355,-23.91 l 58.66,54.544 c 0,0 9.707,-55.67 23.911,-55.67 14.208,0 50.458,48.569 50.458,48.569 l -6.351,19.066 z" /></g><g
           transform="translate(319.4336,523.564)"
           id="g100"><path
             id="path102"
             style="fill:#ffffff;fill-opacity:1;fill-rule:nonzero;stroke:none"
             d="m 0,0 c 0,0 -1.383,1.711 -4.097,2.828 l 1.175,2.993 7.384,0 L 4.754,4.767 0,0 Z m -8.191,18.815 c 2.192,5.061 7.84,0.89 7.84,0.89 L -3.142,13.58 c -2.011,-0.885 -7.254,0.164 -5.049,5.235 M 3.706,8.228 l -5.618,0 3.166,8.31 2.452,-8.31 z m 9.791,-4.936 c 0,0 -1.518,-2.378 -2.429,-0.338 -0.901,2.035 -5.589,12.603 -6.236,23.692 l -0.172,0 -2.663,-2.663 c 0,0 -1.489,2.277 -6.253,2.277 -4.777,0 -7.37,-4.593 -7.37,-8.059 0,-3.466 2.291,-6.802 8.143,-6.067 L -7.082,3.292 c 0,0 -8.313,0.871 -8.313,-6.062 0,-6.932 5.495,-8.489 8.054,-8.489 2.562,0 7.363,1.388 10.353,5.763 l -1.364,1.363 c 0,0 -4.004,-4.486 -8.384,-4.486 -4.373,0 -4.204,3.427 -4.204,4.162 0,0.735 0.529,2.813 4.38,2.813 3.858,0 5.364,-2.77 5.364,-2.77 L 5.617,1.91 c 0,0 1.119,-6.459 2.768,-6.459 1.648,0 5.847,5.637 5.847,5.637 l -0.735,2.204 z" /></g><g
           transform="translate(267.1689,277.8516)"
           id="g104"><path
             id="path106"
             style="fill:#ffffff;fill-opacity:1;fill-rule:nonzero;stroke:none"
             d="M 0,0 C 0,0 -13.848,0.527 -13.848,19.864 -13.848,39.225 0,43.401 0,43.401 L 0,0 Z m 24.055,64.058 c 0,0 -7.324,2.867 -17.517,2.867 -10.193,0 -36.073,-9.93 -36.073,-42.865 0,-32.935 23.533,-52.819 42.084,-52.819 18.552,0 31.377,17.002 31.377,24.833 0,7.852 -2.891,14.387 -9.156,14.387 -6.28,0 -5.748,-15.034 -21.31,-15.034 l -8.23,0 4.709,7.716 0,42.357 10.71,0 c 0,0 4.692,-5.492 11.759,-1.049 7.056,4.447 7.89,20.864 -0.263,29.009 -4.573,4.579 -9.678,0 -9.678,0 0,0 -1.006,-1.822 1.588,-9.402" /></g><g
           transform="translate(232.3433,521.8965)"
           id="g108"><path
             id="path110"
             style="fill:#ffffff;fill-opacity:1;fill-rule:nonzero;stroke:none"
             d="M 0,0 C 0,0 -5.557,0.208 -5.557,7.962 -5.557,15.706 0,17.389 0,17.389 L 0,0 Z m 9.642,25.66 c 0,0 -2.939,1.151 -7.022,1.151 -4.087,0 -14.469,-3.984 -14.469,-17.172 0,-13.197 9.441,-21.164 16.881,-21.164 7.428,0 12.562,6.807 12.562,9.954 0,3.142 -1.156,5.758 -3.672,5.758 -2.504,0 -2.301,-6.019 -8.527,-6.019 l -3.297,0 1.881,3.084 0,16.968 4.294,0 c 0,0 1.881,-2.195 4.704,-0.416 2.836,1.784 3.167,8.363 -0.092,11.627 -1.842,1.832 -3.891,0 -3.891,0 0,0 -0.401,-0.73 0.648,-3.771" /></g><g
           transform="translate(544.5068,312.6338)"
           id="g112"><path
             id="path114"
             style="fill:#ffffff;fill-opacity:1;fill-rule:nonzero;stroke:none"
             d="m 0,0 0,22.735 c 0,0 17.519,2.359 17.519,-10.717 C 17.519,-1.054 0,0 0,0 m -3.655,-35.038 -13.589,0 c 0,0 9.664,5.225 9.664,9.678 l 0,46.011 3.925,2.084 0,-57.773 z m 47.056,5.752 c 0,0 -3.393,-2.871 -6.008,-2.871 -2.616,0 -3.921,7.836 -3.921,14.904 0,7.053 0.517,12.54 -7.454,14.502 0,0 7.454,3.529 7.454,22.349 0,18.829 -12.037,24.582 -30.069,24.582 -18.032,0 -20.381,-6.019 -20.381,-6.019 0,0 -13.468,3.268 -5.762,10.979 0,0 -21.692,-0.532 -21.692,-14.117 0,-13.588 19.589,-18.041 29.011,-16.464 l -7.716,-7.711 0,-49.285 c 0,0 -2.417,-2.287 0,-4.709 2.417,-2.421 2.224,-9.146 12.154,-9.146 9.948,0 12.032,11.245 12.032,11.245 l 0,29.547 c 0,0 14.638,5.22 14.638,-14.644 0,-19.868 6.796,-25.089 12.815,-25.089 6.004,0 6.004,1.295 6.004,1.295 l 11.515,14.643 -2.62,6.009 z" /></g><g
           transform="translate(515.4043,531.8838)"
           id="g116"><path
             id="path118"
             style="fill:#ffffff;fill-opacity:1;fill-rule:nonzero;stroke:none"
             d="m 0,0 0,9.107 c 0,0 7.029,0.948 7.029,-4.287 C 7.029,-0.42 0,0 0,0 m -1.455,-14.034 -5.448,0 c 0,0 3.878,2.098 3.878,3.872 l 0,18.433 1.57,0.836 0,-23.141 z m 18.839,2.306 c 0,0 -1.344,-1.155 -2.403,-1.155 -1.039,0 -1.561,3.142 -1.561,5.97 0,2.823 0.213,5.028 -2.997,5.811 0,0 2.997,1.416 2.997,8.957 0,7.542 -4.824,9.848 -12.062,9.848 -7.216,0 -8.155,-2.408 -8.155,-2.408 0,0 -5.399,1.31 -2.31,4.394 0,0 -8.702,-0.207 -8.702,-5.655 0,-5.439 7.866,-7.227 11.631,-6.599 l -3.093,-3.089 0,-19.743 c 0,0 -0.967,-0.918 0,-1.885 0.981,-0.967 0.894,-3.664 4.882,-3.664 3.984,0 4.815,4.505 4.815,4.505 l 0,11.834 c 0,0 5.869,2.088 5.869,-5.869 0,-7.957 2.717,-10.055 5.124,-10.055 2.407,0 2.407,0.527 2.407,0.527 l 4.616,5.864 -1.058,2.412 z" /></g></g></g></g></svg>