<?xml version="1.0" standalone="no"?>
<!DOCTYPE svg PUBLIC "-//W3C//DTD SVG 20010904//EN"
 "http://www.w3.org/TR/2001/REC-SVG-20010904/DTD/svg10.dtd">
<svg version="1.0" xmlns="http://www.w3.org/2000/svg"
 width="300.000000pt" height="383.000000pt" viewBox="0 0 300.000000 383.000000"
 preserveAspectRatio="xMidYMid meet">
<metadata>
Created by potrace 1.10, written by Peter Selinger 2001-2011
</metadata>
<g transform="translate(0.000000,383.000000) scale(0.100000,-0.100000)"
fill="#0c407c" stroke="none">
<path d="M152 3443 l3 -228 1345 0 1345 0 3 228 2 227 -1350 0 -1350 0 2 -227z
m216 98 c4 -38 -11 -53 -45 -45 -20 5 -21 2 -25 -60 -3 -57 -1 -66 14 -66 10
0 23 9 30 20 18 28 36 25 44 -7 6 -22 1 -32 -25 -55 -37 -33 -64 -35 -109 -8
-39 24 -62 73 -62 131 0 56 50 109 104 109 20 0 36 5 36 11 0 6 8 9 18 7 11
-2 18 -14 20 -37z m1732 23 c0 -12 5 -13 23 -7 31 11 95 7 112 -7 11 -9 14
-32 13 -84 0 -40 4 -81 10 -92 6 -10 12 -15 12 -11 0 5 4 5 10 2 15 -9 -19
-55 -41 -55 -21 0 -39 35 -39 75 0 12 -7 25 -15 29 -12 4 -15 -4 -15 -39 0
-53 -21 -80 -51 -64 -18 9 -19 19 -17 92 l3 82 -30 15 c-35 18 -42 41 -20 64
21 20 45 21 45 0z m-1210 -20 c0 -38 30 -123 48 -133 15 -9 15 -11 -2 -30 -24
-26 -33 -26 -41 0 l-7 21 -21 -20 c-17 -16 -26 -18 -40 -11 -22 13 -47 5 -47
-15 0 -21 24 -26 55 -10 33 17 35 17 35 4 0 -6 -15 -18 -34 -27 -32 -15 -37
-15 -61 1 -21 14 -26 24 -23 49 2 23 9 33 23 35 36 6 63 62 30 62 -14 0 -35
29 -35 49 0 27 40 51 80 48 33 -2 40 -6 40 -23z m-429 -37 c-14 -14 -14 -124
0 -133 8 -4 8 -9 0 -17 -21 -21 -32 9 -34 84 -2 71 -1 74 22 76 17 1 20 -2 12
-10z m190 0 c-12 -12 -15 -47 -3 -47 4 0 14 4 22 10 20 12 30 -6 30 -57 0 -51
-25 -72 -62 -51 -20 12 -23 21 -23 83 0 67 1 70 24 72 17 1 20 -2 12 -10z
m853 -2 c-4 -8 -8 -15 -10 -15 -2 0 -4 7 -4 15 0 8 4 15 10 15 5 0 7 -7 4 -15z
m406 -87 c0 -55 -22 -76 -62 -57 -20 9 -23 16 -19 52 2 23 8 45 14 49 8 4 5 9
-6 14 -9 3 -17 14 -17 25 0 16 4 16 45 -9 42 -26 44 -29 45 -74z m672 70 c-4
-27 -3 -29 15 -19 28 14 33 6 33 -50 0 -57 -24 -79 -62 -57 -20 12 -23 21 -23
83 0 64 2 70 21 71 17 1 20 -3 16 -28z m-1152 -3 c0 -8 6 -15 13 -15 9 0 9 -2
-1 -9 -9 -5 -13 -24 -11 -52 3 -43 -2 -54 -20 -47 -12 4 -16 97 -6 121 9 21
25 23 25 2z m-902 -60 c1 -25 3 -51 5 -58 1 -6 -5 -12 -13 -12 -11 0 -16 13
-18 48 -2 28 -8 47 -15 47 -7 0 -3 7 7 15 26 20 32 13 34 -40z m55 -15 c0 -57
-6 -68 -25 -50 -12 12 -14 74 -2 109 10 29 27 -8 27 -59z m432 60 c14 12 17 9
14 -17 0 -5 -7 -7 -15 -5 -10 2 -14 -8 -14 -38 0 -30 3 -39 13 -34 8 6 8 3 -2
-9 -23 -29 -43 -6 -43 49 0 68 0 68 17 54 12 -10 18 -10 30 0z m135 -5 c6 3
10 -1 10 -9 0 -9 -5 -16 -11 -16 -7 0 -9 -13 -5 -37 14 -82 16 -78 -38 -81
-44 -3 -48 -2 -36 13 10 12 10 19 2 27 -7 7 -12 31 -12 55 0 36 4 45 23 52 12
5 30 5 40 -1 9 -5 22 -6 27 -3z m85 -48 c-29 -25 -27 -54 4 -42 14 5 14 4 1
-9 -9 -9 -24 -13 -38 -10 -19 6 -22 13 -22 54 0 39 4 49 23 57 17 9 26 7 41
-7 19 -18 18 -19 -9 -43z m78 -6 c1 -32 -3 -53 -10 -55 -7 -3 -14 -2 -17 2 -8
14 -10 98 -2 111 14 23 28 -4 29 -58z m62 57 c4 4 2 -3 -4 -16 -7 -13 -11 -38
-9 -55 2 -18 -1 -34 -7 -37 -6 -3 -11 15 -13 43 -2 26 -8 47 -14 47 -7 0 -6 6
2 15 9 11 16 12 25 5 6 -5 15 -6 20 -2z m126 -58 c2 -43 0 -55 -11 -55 -16 0
-27 83 -15 113 10 27 23 -1 26 -58z m91 58 c21 21 33 2 32 -51 -1 -66 -18 -78
-22 -14 -2 34 -7 47 -19 47 -12 0 -14 -10 -11 -45 2 -29 -1 -46 -9 -49 -17 -7
-21 2 -24 54 -3 56 6 76 27 59 11 -9 18 -9 26 -1z m146 -51 c4 -54 -19 -75
-60 -56 -20 9 -23 16 -19 52 4 47 25 69 56 57 15 -5 21 -18 23 -53z m272 22
c0 -4 -10 -15 -21 -23 -26 -18 -19 -52 9 -42 14 5 13 3 -3 -9 -11 -9 -26 -13
-33 -10 -8 3 -17 5 -20 5 -4 0 -5 22 -4 49 3 38 8 51 25 59 17 8 25 6 35 -6 6
-9 12 -19 12 -23z m326 -12 c-1 -57 18 -59 24 -2 7 65 24 60 30 -8 5 -60 -1
-77 -23 -58 -8 6 -18 6 -27 1 -22 -14 -30 -2 -30 46 0 26 -5 44 -11 44 -8 0
-8 4 1 14 20 25 36 8 36 -37z m177 41 c9 0 17 -6 17 -14 0 -8 -4 -14 -10 -14
-13 0 -13 -56 1 -82 14 -26 -2 -38 -54 -38 -34 0 -37 2 -28 19 8 14 7 22 -4
31 -8 7 -15 29 -15 50 0 28 5 39 23 48 12 6 29 8 37 5 8 -3 23 -5 33 -5z m200
1 c18 14 27 4 27 -28 0 -32 -5 -39 -50 -72 l-35 -26 2 58 c2 69 9 85 29 68 10
-8 18 -9 27 0z m-13 -139 c0 -5 -5 -10 -11 -10 -5 0 -7 5 -4 10 3 6 8 10 11
10 2 0 4 -4 4 -10z"/>
<path d="M252 3478 c-21 -28 -22 -55 -3 -79 l20 -24 1 58 c0 60 -2 64 -18 45z"/>
<path d="M2166 3503 c-11 -12 -6 -53 7 -53 14 0 37 19 37 32 0 11 -36 28 -44
21z"/>
<path d="M2138 3425 c-2 -41 0 -75 5 -75 4 0 7 34 7 75 0 41 -2 75 -4 75 -3 0
-6 -34 -8 -75z"/>
<path d="M803 3514 c-7 -18 11 -39 26 -30 17 11 13 46 -4 46 -9 0 -18 -7 -22
-16z"/>
<path d="M846 3465 c-3 -9 0 -15 9 -15 8 0 15 7 15 15 0 8 -4 15 -9 15 -5 0
-11 -7 -15 -15z"/>
<path d="M830 3421 c0 -19 22 -23 38 -7 15 15 14 16 -11 16 -15 0 -27 -4 -27
-9z"/>
<path d="M644 3436 c-8 -21 -1 -49 14 -54 8 -2 12 8 12 32 0 36 -16 49 -26 22z"/>
<path d="M1860 3421 c0 -23 5 -41 10 -41 6 0 10 15 10 34 0 19 -4 38 -10 41
-6 4 -10 -10 -10 -34z"/>
<path d="M2580 3415 c0 -19 5 -35 10 -35 6 0 10 16 10 35 0 19 -4 35 -10 35
-5 0 -10 -16 -10 -35z"/>
<path d="M1090 3415 c0 -25 4 -35 13 -32 6 2 12 16 12 32 0 16 -6 30 -12 33
-9 2 -13 -8 -13 -33z"/>
<path d="M1100 3355 c-10 -13 -9 -15 9 -15 11 0 21 4 21 9 0 18 -18 21 -30 6z"/>
<path d="M1210 3436 c0 -9 5 -16 10 -16 6 0 10 4 10 9 0 6 -4 13 -10 16 -5 3
-10 -1 -10 -9z"/>
<path d="M1690 3415 c0 -19 5 -35 10 -35 6 0 10 16 10 35 0 19 -4 35 -10 35
-5 0 -10 -16 -10 -35z"/>
<path d="M1970 3434 c0 -8 5 -12 10 -9 6 4 8 11 5 16 -9 14 -15 11 -15 -7z"/>
<path d="M2452 3417 c4 -51 22 -56 26 -6 2 26 -1 38 -13 43 -14 5 -16 -1 -13
-37z"/>
<path d="M2467 3363 c-13 -12 -7 -23 13 -23 13 0 18 5 14 15 -7 16 -17 19 -27
8z"/>
<path d="M2690 3413 c1 -36 1 -37 16 -18 17 22 15 46 -3 53 -9 2 -13 -8 -13
-35z"/>
<path d="M154 3047 c-2 -7 -3 -386 -2 -842 l3 -830 23 -80 c46 -158 112 -290
211 -420 211 -279 588 -532 1010 -679 l97 -34 90 37 c567 239 996 597 1179
984 90 189 85 133 83 1058 l-3 814 -1343 3 c-1093 2 -1344 0 -1348 -11z m1625
-337 c22 -238 109 -605 209 -885 99 -276 157 -395 194 -395 4 0 25 16 46 34
l38 35 21 -65 21 -64 -63 -78 c-76 -94 -179 -199 -220 -224 -38 -23 -77 -23
-98 0 -28 31 -65 124 -93 232 -15 58 -28 106 -29 108 -1 1 -76 -66 -166 -149
-90 -84 -176 -163 -191 -177 l-28 -25 -54 52 c-72 67 -130 92 -230 99 -114 7
-177 -10 -232 -62 -44 -42 -44 -43 -44 -111 0 -125 55 -194 174 -216 143 -26
332 51 489 200 l58 55 41 -41 41 -41 -32 -41 c-61 -77 -162 -159 -252 -206
-252 -130 -496 -109 -654 56 -95 99 -130 204 -123 369 3 84 7 102 34 150 61
109 177 168 345 177 l96 6 98 241 c54 132 99 246 101 251 3 6 -33 10 -93 11
-74 1 -112 7 -154 23 -155 59 -239 221 -209 400 24 146 126 294 240 351 74 37
100 42 204 41 127 -1 244 -38 309 -99 l28 -26 76 77 c43 42 80 73 84 69 3 -4
11 -63 18 -132z m415 -424 c-9 -38 27 -53 74 -30 27 13 60 18 117 18 87 -1
122 -13 165 -59 23 -24 25 -35 25 -113 0 -66 -4 -93 -17 -112 -17 -25 -17 -27
2 -43 15 -12 20 -30 21 -69 2 -83 10 -103 44 -103 43 0 43 -27 -1 -85 -33 -44
-43 -50 -75 -50 -22 0 -42 7 -51 18 -21 22 -38 86 -38 140 0 62 -23 102 -59
102 l-29 0 -4 -104 c-2 -87 -6 -109 -24 -133 -34 -45 -98 -44 -129 3 -14 22
-16 52 -15 207 1 171 2 183 22 204 l21 23 -24 0 c-155 0 -219 151 -84 198 52
18 66 15 59 -12z m-1461 -67 c24 -33 32 -106 15 -139 -20 -37 -63 -58 -88 -42
-11 6 -36 12 -55 12 l-35 0 0 -143 c0 -113 -3 -147 -16 -165 -15 -22 -14 -22
25 -22 55 0 86 16 116 61 14 22 31 39 39 39 28 0 57 -35 62 -75 4 -33 0 -49
-25 -87 -82 -129 -258 -137 -366 -16 -133 147 -134 380 -3 492 67 58 149 75
241 49 15 -4 17 0 11 21 -3 14 -3 30 1 36 12 19 57 6 78 -21z"/>
<path d="M1145 2526 c-120 -44 -199 -248 -136 -350 35 -56 99 -88 185 -94 42
-2 81 0 93 6 12 7 50 78 98 183 l78 172 -24 18 c-38 29 -144 68 -201 74 -34 3
-67 0 -93 -9z"/>
<path d="M1470 2027 c-46 -122 -86 -228 -88 -234 -3 -10 31 -13 152 -13 118 0
156 3 156 13 0 14 -119 426 -129 444 -4 7 -44 -87 -91 -210z"/>
<path d="M1304 1605 c-8 -20 -23 -57 -33 -83 l-19 -48 62 -32 c34 -18 87 -54
117 -81 l56 -50 135 137 c119 121 134 140 129 162 l-7 25 -212 3 -213 2 -15
-35z"/>
<path d="M2317 2123 c-4 -3 -7 -78 -7 -165 l0 -159 -26 -24 -27 -25 37 0 36 0
0 190 c0 105 -1 190 -3 190 -2 0 -7 -3 -10 -7z"/>
<path d="M2360 2055 c0 -83 3 -86 65 -61 37 16 52 48 41 89 -6 26 -43 47 -81
47 -24 0 -25 -2 -25 -75z"/>
<path d="M452 1995 c-55 -62 -53 -179 5 -224 14 -12 30 -21 34 -21 5 0 9 63 9
140 0 77 -4 140 -9 140 -5 0 -23 -16 -39 -35z"/>
</g>
</svg>
